<?xml version="1.0" encoding="UTF-8"?>
<svg width="79px" height="27px" viewBox="0 0 79 27" version="1.1" xmlns="http://www.w3.org/2000/svg" xmlns:xlink="http://www.w3.org/1999/xlink">
    <!-- Generator: Sketch 51.2 (57519) - http://www.bohemiancoding.com/sketch -->
    <title>Page 1</title>
    <desc>Created with Sketch.</desc>
    <defs>
        <polygon id="path-1" points="0.366489604 0.190627941 43.4957574 0.190627941 43.4957574 16.465275 0.366489604 16.465275"></polygon>
        <polygon id="path-3" points="0 0.376014706 25.8323351 0.376014706 25.8323351 26.6029412 0 26.6029412"></polygon>
        <polygon id="path-5" points="0 26.6238662 78.6937772 26.6238662 78.6937772 0.396939706 0 0.396939706"></polygon>
    </defs>
    <g id="Page-2" stroke="none" stroke-width="1" fill="none" fill-rule="evenodd">
        <g id="Artboard" transform="translate(-70.000000, -72.000000)">
            <g id="Page-1" transform="translate(70.000000, 72.000000)">
                <g id="Group-3" transform="translate(35.198020, 5.182690)">
                    <mask id="mask-2" fill="white">
                        <use xlink:href="#path-1"></use>
                    </mask>
                    <g id="Clip-2"></g>
                    <path d="M37.6372817,8.61978971 L34.2770441,3.87612794 L36.6493906,3.87612794 L38.841445,7.05061324 L41.0338906,3.87612794 L43.3522668,3.87612794 L39.9920292,8.56459853 L43.4957965,13.5091721 L41.1238411,13.5091721 L38.7874748,10.133775 L36.4694896,13.5091721 L34.1511134,13.5091721 L37.6372817,8.61978971 Z M29.8737718,2.398275 L32.2281282,2.398275 L32.2281282,0.300216176 L29.8737718,0.300216176 L29.8737718,2.398275 Z M29.9641134,13.5095691 L32.1561678,13.5095691 L32.1561678,3.87612794 L29.9641134,3.87612794 L29.9641134,13.5095691 Z M24.8240292,13.5095691 L27.0164748,13.5095691 L27.0164748,0.190627941 L24.8240292,0.190627941 L24.8240292,13.5095691 Z M17.4027223,13.7283485 C16.6835094,13.7283485 16.0159203,13.5973191 15.3987817,13.3360544 C14.7820342,13.0743926 14.2485886,12.7186279 13.7992272,12.2687603 C13.3498658,11.8188926 12.9998411,11.2896132 12.7479797,10.6813191 C12.4965094,10.073025 12.3709698,9.42859853 12.3709698,8.74724559 L12.3709698,8.71071618 C12.3709698,8.01745147 12.4996381,7.36706912 12.7573658,6.758775 C13.0147025,6.15048088 13.3678559,5.61842206 13.8176084,5.16220147 C14.2665787,4.70637794 14.7996332,4.34426029 15.4167718,4.07664265 C16.0339104,3.809025 16.7073658,3.67521618 17.4387025,3.67521618 C18.169648,3.67521618 18.8431035,3.80584853 19.459851,4.06751029 C20.0773807,4.328775 20.6104351,4.68811324 21.0594054,5.14393676 C21.5091579,5.60055441 21.8591827,6.12943676 22.1110441,6.73137794 C22.3621233,7.33331912 22.488445,7.98131912 22.488445,8.67458382 L22.488445,8.71071618 C22.488445,9.39167206 22.3593856,10.0364956 22.1016579,10.6451868 C21.8443213,11.2530838 21.4907767,11.7851426 21.0414153,12.2413632 C20.592445,12.6975838 20.0562619,13.0597015 19.4328658,13.326525 C18.8098609,13.5941426 18.1332767,13.7283485 17.4027223,13.7283485 Z M17.4387025,11.8125397 C17.8790688,11.8125397 18.2740688,11.7303485 18.6276134,11.5663632 C18.9780292,11.4019809 19.2776035,11.180025 19.5290738,10.9004956 C19.7774153,10.6205691 19.969049,10.2949809 20.0981084,9.92412794 C20.2299054,9.553275 20.2956084,9.16098088 20.2956084,8.74724559 L20.2956084,8.71071618 C20.2956084,8.28506912 20.2240391,7.88364265 20.0797272,7.50683382 C19.9393262,7.12962794 19.7386975,6.80126029 19.4840985,6.52173088 C19.2267619,6.24180441 18.9240589,6.01984853 18.5736431,5.85546618 C18.2200985,5.69148088 17.8305738,5.60928971 17.4027223,5.60928971 C16.9740886,5.60928971 16.584955,5.69148088 16.2318015,5.85546618 C15.8809946,6.01984853 15.5814203,6.23862794 15.32995,6.51220147 C15.0812173,6.78617206 14.8895837,7.11136324 14.7609153,7.48817206 C14.6291183,7.865775 14.5634153,8.26084853 14.5634153,8.67458382 L14.5634153,8.71071618 C14.5634153,9.13676029 14.6349847,9.53501029 14.7789054,9.90586324 C14.9196975,10.2771132 15.1203262,10.6054809 15.3749252,10.8913632 C15.6322619,11.1768485 15.9349649,11.4019809 16.2853807,11.5663632 C16.6389252,11.7303485 17.0221926,11.8125397 17.4387025,11.8125397 Z M5.0744203,16.465275 C3.49324703,16.465275 2.0794599,16.0848926 0.833841089,15.3277015 L1.64222228,13.6735544 C2.14555396,13.9896132 2.67274208,14.2389662 3.22378663,14.4212162 C3.77483119,14.6038632 4.37358861,14.6951868 5.02084109,14.6951868 C5.99113317,14.6951868 6.73381139,14.4458338 7.24926683,13.9439515 C7.7639401,13.4424662 8.02166782,12.7035397 8.02166782,11.7243926 L8.02166782,10.9731574 C7.62666782,11.4960838 7.16518267,11.9217309 6.63799455,12.2504956 C6.11119752,12.5788632 5.45807871,12.7432456 4.6794203,12.7432456 C4.11625198,12.7432456 3.5769401,12.6396132 3.06187574,12.4331426 C2.54681139,12.226275 2.08884604,11.9312603 1.68719752,11.5480985 C1.2859401,11.1645397 0.96524703,10.6936279 0.725509406,10.133775 C0.486162871,9.57431912 0.366489604,8.94220147 0.366489604,8.23623088 L0.366489604,8.20009853 C0.366489604,7.494525 0.486162871,6.85883382 0.725509406,6.29342206 C0.96524703,5.72801029 1.2859401,5.25312794 1.68719752,4.87036324 C2.08884604,4.48720147 2.54954901,4.19218676 3.07087079,3.98531912 C3.59180149,3.77884853 4.12798465,3.67521618 4.6794203,3.67521618 C5.48193515,3.67521618 6.14404901,3.83642206 6.6649797,4.15883382 C7.18630149,4.48124559 7.63214307,4.86718676 8.00406881,5.31745147 L8.00406881,3.87612794 L10.1781332,3.87612794 L10.1781332,11.5389662 C10.1781332,13.1446721 9.77687574,14.3545103 8.97436089,15.1696721 C8.54259851,15.6076279 8.0009401,15.9328191 7.34821238,16.1456426 C6.69509356,16.3584662 5.93716287,16.465275 5.0744203,16.465275 Z M5.25432129,10.8818338 C5.62546485,10.8818338 5.98213812,10.8183044 6.32395,10.6904515 C6.6649797,10.5629956 6.96142525,10.3807456 7.21328663,10.1433044 C7.46475693,9.90586324 7.66538564,9.62593676 7.81517277,9.30392206 C7.9649599,8.98151029 8.03965792,8.62574559 8.03965792,8.23623088 L8.03965792,8.20009853 C8.03965792,7.79867206 7.9649599,7.43695147 7.81517277,7.11453971 C7.66538564,6.79173088 7.46475693,6.51220147 7.21328663,6.27555441 C6.96142525,6.03811324 6.6649797,5.85546618 6.32395,5.72801029 C5.98213812,5.60055441 5.62546485,5.53623088 5.25432129,5.53623088 C4.87105396,5.53623088 4.51750941,5.60055441 4.19407871,5.72801029 C3.87064802,5.85546618 3.58632624,6.03493676 3.34072228,6.266025 C3.09511832,6.49711324 2.90348465,6.77426029 2.7654302,7.096275 C2.62737574,7.41868676 2.55893515,7.78080441 2.55893515,8.18143676 L2.55893515,8.21836324 C2.55893515,8.61978971 2.63050446,8.98151029 2.77403416,9.30392206 C2.91834604,9.62593676 3.1099797,9.90586324 3.34932624,10.1433044 C3.58867277,10.3807456 3.87377673,10.5629956 4.20307376,10.6904515 C4.53276188,10.8183044 4.88278663,10.8818338 5.25432129,10.8818338 Z" id="Fill-1" fill="#FFFFFF" mask="url(#mask-2)"></path>
                </g>
                <g id="Group-6" transform="translate(0.000000, 0.020925)">
                    <mask id="mask-4" fill="white">
                        <use xlink:href="#path-3"></use>
                    </mask>
                    <g id="Clip-5"></g>
                    <path d="M21.1099342,2.10361765 L4.72290941,2.10361765 C3.89262723,2.10361765 3.13743416,2.44905882 2.58990941,3.00533824 C2.04160248,3.56122059 1.70135495,4.32833824 1.70135495,5.17089706 L1.70135495,21.8080588 C1.70135495,22.6510147 2.04160248,23.4177353 2.58990941,23.9736176 C3.13743416,24.5298971 3.89262723,24.8757353 4.72290941,24.8757353 L21.1099342,24.8757353 C21.9398252,24.8757353 22.6954094,24.5298971 23.2429342,23.9736176 C23.7904589,23.4177353 24.1310975,22.6510147 24.1310975,21.8080588 L24.1310975,5.17089706 C24.1310975,4.32833824 23.7904589,3.56122059 23.2429342,3.00533824 C22.6954094,2.44905882 21.9398252,2.10361765 21.1099342,2.10361765 M4.72290941,0.376014706 L21.1099342,0.376014706 C22.4095233,0.376014706 23.5906124,0.915617647 24.4459243,1.78358824 C25.3012361,2.65235294 25.8323351,3.85107353 25.8323351,5.17089706 L25.8323351,21.8080588 C25.8323351,23.1274853 25.3012361,24.327 24.4459243,25.1949706 C23.5906124,26.0637353 22.4095233,26.6029412 21.1099342,26.6029412 L4.72290941,26.6029412 C3.42292921,26.6029412 2.2418401,26.0637353 1.38652822,25.1949706 C0.531216337,24.327 -0.000273762376,23.1274853 -0.000273762376,21.8080588 L-0.000273762376,5.17089706 C-0.000273762376,3.85107353 0.531216337,2.65235294 1.38652822,1.78358824 C2.2418401,0.915617647 3.42292921,0.376014706 4.72290941,0.376014706" id="Fill-4" fill="#FFFFFF" mask="url(#mask-4)"></path>
                </g>
                <path d="M8.65237723,18.4613294 L8.73215941,18.4613294 C10.6805653,18.4613294 12.6289713,18.4597412 14.5769861,18.4625206 C15.0275208,18.4629176 15.388105,18.1706824 15.524595,17.7918882 C15.5617485,17.6898441 15.5848228,17.5838294 15.585605,17.4746382 C15.5863871,17.3094618 15.5863871,17.1442853 15.5863871,16.9787118 C15.5863871,16.9660059 15.5844317,16.9536971 15.5828673,16.9350353 L15.5116891,16.9350353 C14.5597782,16.9350353 13.6086495,16.9362265 12.6567386,16.9350353 C11.5933673,16.9334471 10.6129069,16.6404176 9.73295644,16.0337118 C8.58550099,15.2423735 7.85533762,14.1544324 7.54520396,12.7806088 C7.43530792,12.2926235 7.40245644,11.7966971 7.43569901,11.2971971 C7.58587723,9.01609412 9.1416297,7.17135882 11.1948475,6.57219706 C11.5362683,6.47253529 11.8843376,6.40662353 12.2390554,6.38240294 C12.3833673,6.37287353 12.5280703,6.36532941 12.6723822,6.36493235 C13.242199,6.36255 13.8120158,6.36374118 14.3822238,6.36374118 L14.4455802,6.36374118 C14.4592683,6.40463824 14.4627881,8.35221176 14.4498822,8.43519706 L14.3935653,8.43519706 C14.1311446,8.43519706 13.8687238,8.43360882 13.606303,8.43559412 C12.267605,8.44631471 11.095902,9.34843235 10.7224119,10.6547559 C10.6109515,11.0438735 10.5757535,11.4405353 10.6156446,11.8431529 C10.7208475,12.9056824 11.3336842,13.7831824 12.1866495,14.2517118 C12.548798,14.4510353 12.9355851,14.5713441 13.3466198,14.6066824 C13.4561248,14.6158147 13.566803,14.6209765 13.6770901,14.6209765 C14.3063525,14.6225647 15.6372287,14.6217706 15.6372287,14.6217706 L15.6399663,9.5283 L18.4041842,9.5283 C18.4041842,9.5283 18.407704,14.9020941 18.4092683,17.55405 C18.4092683,17.9650059 18.3408277,18.3612706 18.1879119,18.7416529 C17.8195059,19.6552853 17.0295059,20.3394176 16.0826792,20.5689176 C15.840595,20.6272853 15.5957733,20.6574618 15.3466495,20.6570647 C13.1342584,20.6550794 10.9218673,20.6538882 8.70947624,20.6526971 L8.65237723,20.6526971 L8.65237723,18.4613294 Z" id="Fill-7" fill="#FFFFFF"></path>
                <mask id="mask-6" fill="white">
                    <use xlink:href="#path-5"></use>
                </mask>
                <g id="Clip-10"></g>
                <polygon id="Fill-9" fill="#FFFFFF" mask="url(#mask-6)" points="15.6423911 8.44214559 18.4054356 8.44214559 18.4054356 6.37863088 15.6423911 6.37863088"></polygon>
            </g>
        </g>
    </g>
</svg>